# xmcd
#
# Track frame offsets:
#	180
#	15889
#	29545
#	48038
#	62211
#	77136
#	90697
#	103889
#	118396
#	136117
#	150434
#	163429
#	176900
#	191040
#	205069
#	218221
#	233151
#	245857
#	256948
#	273340
#
# Disc length: 3890 seconds
#
# Revision: 1
# Processed by: cddbd v1.5.1PL0 Copyright (c) Steve Scherf et al.
# Submitted via: audiograbber 1.83.01
#
DISCID=1f0f3014
DTITLE=Various Artist - Alles Country- oder was? No. 2
DYEAR=1994
DGENRE=Country
TTITLE0=Daniel T. Coates - The man I should habe been
TTITLE1=Mark Bender - please give me a call
TTITLE2=Jeff Turner - Johnny just wanted to waltz
TTITLE3=Ronny Nash - Mamama mach das Radio an
TTITLE4=Tom Astor - Sonntagmorgen
TTITLE5=Texas Radio - Like a boat on the sea
TTITLE6=Carry and Ron - Lady Trucker
TTITLE7=The Union - Route 66
TTITLE8=Tina Elton - On Tour again
TTITLE9=Old Number seven - Rocky Top
TTITLE10=Helt Oncale - Cajun Nights
TTITLE11=Black Bottom Skiffel Group - Nach America
TTITLE12=Frank Baum - Baumy Bajou
TTITLE13=The Union - Ocean front proberty
TTITLE14=Ronny Nash - Bajou Betty
TTITLE15=Dirk Maverick - Pease is...
TTITLE16=Tina Elton - Everthing I think
TTITLE17=Ols Number Seven - Blus Moon of Kentucky
TTITLE18=Rebell Yell Band - Jim Beam and a house full of friends
TTITLE19=Daniel T. Coates - On the road again
EXTD=
EXTT0=
EXTT1=
EXTT2=
EXTT3=
EXTT4=
EXTT5=
EXTT6=
EXTT7=
EXTT8=
EXTT9=
EXTT10=
EXTT11=
EXTT12=
EXTT13=
EXTT14=
EXTT15=
EXTT16=
EXTT17=
EXTT18=
EXTT19=
PLAYORDER=
